<svg xmlns="http://www.w3.org/2000/svg" version="1.1" width="650" height="400"><rect id="backgroundrect" width="100%" height="100%" x="0" y="0" fill="none" stroke="none"/><clipPath id="box"><rect x="0" y="0" width="650" height="400" style="fill:none;stroke:none;" id="svg_1"/></clipPath><g class="currentLayer" style=""><title>Layer 1</title><g clip-path="url(#box)" id="svg_2" class=""><rect x="-0.7194244861602783" y="0" width="650" height="400" style="fill:#FFFFFF;stroke:none;" id="svg_3"/><path d="M243.03057551383972,0 L243.03057551383972,400 " style="fill:none;stroke:#000000;stroke-width:1;" id="svg_4"/><path d="M-0.7194244861602783,300 L649.2805755138397,300 " style="fill:none;stroke:#000000;stroke-width:1;" id="svg_5"/><path d="M-10.719424486160278,200 L-0.9694244861602783,300 L0.03057551383972179,300 L2.0305755138397217,300 L4.030575513839722,300 L6.030575513839722,300 L8.030575513839722,300 L10.030575513839722,300 L12.030575513839722,300 L14.030575513839722,300 L16.03057551383972,300 L18.03057551383972,300 L20.03057551383972,300 L22.03057551383972,300 L24.03057551383972,300 L26.03057551383972,300 L28.03057551383972,300 L30.03057551383972,299.99 L32.03057551383972,299.99 L34.03057551383972,299.99 L36.03057551383972,299.99 L38.03057551383972,299.99 L40.03057551383972,299.99 L42.03057551383972,299.99 L44.03057551383972,299.99 L46.03057551383972,299.99 L48.03057551383972,299.99 L50.03057551383972,299.98 L52.03057551383972,299.98 L54.03057551383972,299.98 L56.03057551383972,299.98 L58.03057551383972,299.97 L60.03057551383972,299.97 L62.03057551383972,299.97 L64.03057551383972,299.97 L66.03057551383972,299.96 L68.03057551383972,299.96 L70.03057551383972,299.95 L72.03057551383972,299.95 L74.03057551383972,299.94 L76.03057551383972,299.94 L78.03057551383972,299.93 L80.03057551383972,299.92 L82.03057551383972,299.91 L84.03057551383972,299.9 L86.03057551383972,299.89 L88.03057551383972,299.88 L90.03057551383972,299.87 L92.03057551383972,299.86 L94.03057551383972,299.85 L96.03057551383972,299.83 L98.03057551383972,299.81 L100.03057551383972,299.8 L102.03057551383972,299.78 L104.03057551383972,299.76 L106.03057551383972,299.73 L108.03057551383972,299.71 L110.03057551383972,299.68 L112.03057551383972,299.65 L114.03057551383972,299.62 L116.03057551383972,299.58 L118.03057551383972,299.54 L120.03057551383972,299.5 L122.03057551383972,299.46 L124.03057551383972,299.41 L126.03057551383972,299.36 L128.03057551383972,299.3 L130.03057551383972,299.24 L132.03057551383972,299.17 L134.03057551383972,299.1 L136.03057551383972,299.02 L138.03057551383972,298.94 L140.03057551383972,298.85 L142.03057551383972,298.75 L144.03057551383972,298.65 L146.03057551383972,298.54 L148.03057551383972,298.42 L150.03057551383972,298.29 L152.03057551383972,298.16 L154.03057551383972,298.01 L156.03057551383972,297.85 L158.03057551383972,297.69 L160.03057551383972,297.51 L162.03057551383972,297.32 L164.03057551383972,297.11 L166.03057551383972,296.89 L168.03057551383972,296.66 L170.03057551383972,296.41 L172.03057551383972,296.15 L174.03057551383972,295.87 L176.03057551383972,295.57 L178.03057551383972,295.25 L180.03057551383972,294.91 L182.03057551383972,294.55 L184.03057551383972,294.17 L186.03057551383972,293.77 L188.03057551383972,293.35 L190.03057551383972,292.89 L192.03057551383972,292.42 L194.03057551383972,291.91 L196.03057551383972,291.38 L198.03057551383972,290.82 L200.03057551383972,290.23 L202.03057551383972,289.6 L204.03057551383972,288.94 L206.03057551383972,288.25 L208.03057551383972,287.52 L210.03057551383972,286.76 L212.03057551383972,285.95 L214.03057551383972,285.11 L216.03057551383972,284.23 L218.03057551383972,283.3 L220.03057551383972,282.33 L222.03057551383972,281.31 L224.00057551383972,280.27 L225.88057551383972,279.22 L227.69057551383972,278.18 L229.4205755138397,277.14 L231.09057551383972,276.11 L232.7005755138397,275.07 L234.2605755138397,274.04 L235.77057551383973,273.01 L237.2305755138397,271.98 L238.65057551383973,270.95 L240.03057551383972,269.92 L241.38057551383972,268.9 L242.69057551383972,267.87 L243.96057551383973,266.85 L245.21057551383973,265.82 L246.43057551383973,264.8 L247.62057551383973,263.78 L248.7905755138397,262.76 L249.93057551383973,261.74 L251.05057551383973,260.72 L252.15057551383973,259.7 L253.22057551383972,258.68 L254.28057551383972,257.66 L255.32057551383974,256.65 L256.3505755138397,255.63 L257.3505755138397,254.61 L258.3405755138397,253.6 L259.3105755138397,252.58 L260.27057551383973,251.57 L261.2205755138397,250.55 L262.1505755138397,249.54 L263.07057551383974,248.52 L263.9805755138397,247.51 L264.8705755138397,246.5 L265.75057551383975,245.49 L266.6205755138397,244.47 L267.4905755138397,243.46 L268.3405755138397,242.45 L269.1805755138397,241.44 L270.01057551383974,240.43 L270.83057551383973,239.42 L271.64057551383974,238.41 L272.45057551383974,237.39 L273.25057551383975,236.38 L274.0305755138397,235.37 L274.8105755138397,234.36 L275.5905755138397,233.36 L276.3505755138397,232.35 L277.1105755138397,231.34 L277.8605755138397,230.33 L278.6105755138397,229.32 L279.3505755138397,228.31 L280.08057551383973,227.3 L280.8105755138397,226.29 L281.5305755138397,225.29 L282.2405755138397,224.28 L282.95057551383974,223.27 L283.6605755138397,222.26 L284.3605755138397,221.26 L285.0505755138397,220.25 L285.7405755138397,219.24 L286.4305755138397,218.24 L287.1105755138397,217.23 L287.7805755138397,216.22 L288.45057551383974,215.22 L289.1205755138397,214.21 L289.7805755138397,213.2 L290.44057551383975,212.2 L291.1005755138397,211.19 L291.75057551383975,210.19 L292.4005755138397,209.18 L293.0405755138397,208.18 L293.6805755138397,207.17 L294.32057551383974,206.17 L294.95057551383974,205.16 L295.5905755138397,204.16 L296.21057551383973,203.15 L296.8405755138397,202.15 L297.46057551383973,201.14 L298.08057551383973,200.14 L298.70057551383974,199.13 L299.3105755138397,198.13 L299.9205755138397,197.13 L300.5305755138397,196.12 L301.14057551383974,195.12 L301.7405755138397,194.11 L302.3405755138397,193.11 L302.94057551383975,192.11 L303.5405755138397,191.1 L304.14057551383974,190.1 L304.7305755138397,189.1 L305.32057551383974,188.09 L305.9105755138397,187.09 L306.50057551383975,186.09 L307.08057551383973,185.08 L307.6705755138397,184.08 L308.25057551383975,183.08 L308.83057551383973,182.08 L309.4105755138397,181.07 L309.9905755138397,180.07 L310.57057551383974,179.07 L311.14057551383974,178.07 L311.7205755138397,177.06 L312.2905755138397,176.06 L312.8605755138397,175.06 L313.4305755138397,174.06 L314.00057551383975,173.06 L314.57057551383974,172.06 L315.14057551383974,171.05 L315.70057551383974,170.05 L316.27057551383973,169.05 L316.8405755138397,168.05 L317.4005755138397,167.05 L317.96057551383973,166.05 L318.5305755138397,165.05 L319.0905755138397,164.04 L319.6505755138397,163.04 L320.21057551383973,162.04 L320.77057551383973,161.04 L321.3405755138397,160.04 L321.9005755138397,159.04 L322.46057551383973,158.04 L323.02057551383973,157.04 L323.58057551383973,156.04 L324.13057551383974,155.04 L324.69057551383975,154.04 L325.25057551383975,153.04 L325.8105755138397,152.04 L326.3705755138397,151.04 L326.9305755138397,150.04 L327.4905755138397,149.04 L328.0505755138397,148.04 L328.6105755138397,147.04 L329.1705755138397,146.04 L329.7405755138397,145.04 L330.3005755138397,144.05 L330.8605755138397,143.05 L331.4205755138397,142.05 L331.9905755138397,141.05 L332.5505755138397,140.05 L333.1205755138397,139.05 L333.6805755138397,138.05 L334.25057551383975,137.06 L334.82057551383974,136.06 L335.39057551383974,135.06 L335.96057551383973,134.06 L336.5305755138397,133.06 L337.1005755138397,132.07 L337.6705755138397,131.07 L338.25057551383975,130.07 L338.82057551383974,129.07 L339.4005755138397,128.08 L339.9805755138397,127.08 L340.5605755138397,126.08 L341.1505755138397,125.09 L341.7305755138397,124.09 L342.32057551383974,123.09 L342.9105755138397,122.1 L343.50057551383975,121.1 L344.0905755138397,120.1 L344.69057551383975,119.11 L345.2905755138397,118.11 L345.89057551383974,117.12 L346.4905755138397,116.12 L347.1005755138397,115.13 L347.71057551383973,114.13 L348.32057551383974,113.14 L348.94057551383975,112.14 L349.5605755138397,111.15 L350.1805755138397,110.15 L350.8105755138397,109.16 L351.44057551383975,108.17 L352.07057551383974,107.17 L352.71057551383973,106.18 L353.3505755138397,105.19 L354.00057551383975,104.19 L354.6505755138397,103.2 L355.3105755138397,102.21 L355.9705755138397,101.22 L356.64057551383974,100.22 L357.3105755138397,99.23 L357.9905755138397,98.24 L358.6705755138397,97.25 L359.3705755138397,96.26 L360.0605755138397,95.27 L360.77057551383973,94.28 L361.4805755138397,93.29 L362.20057551383974,92.3 L362.9305755138397,91.32 L363.6705755138397,90.33 L364.4205755138397,89.34 L365.1805755138397,88.36 L365.94057551383975,87.37 L366.7205755138397,86.38 L367.51057551383974,85.4 L368.32057551383974,84.42 L369.13057551383974,83.43 L369.96057551383973,82.45 L370.8105755138397,81.47 L371.6705755138397,80.49 L372.5505755138397,79.51 L373.44057551383975,78.53 L374.3605755138397,77.56 L375.3005755138397,76.58 L376.27057551383973,75.61 L377.26057551383974,74.64 L378.2805755138397,73.67 L379.33057551383973,72.7 L380.4205755138397,71.74 L381.5505755138397,70.78 L382.7305755138397,69.82 L383.96057551383973,68.87 L385.25057551383975,67.92 L386.6105755138397,66.98 L388.0605755138397,66.05 L389.6105755138397,65.13 L391.3005755138397,64.22 L393.1605755138397,63.33 L395.1605755138397,62.52 L397.1605755138397,61.84 L399.1605755138397,61.31 L401.1605755138397,60.92 L403.1605755138397,60.68 L405.1605755138397,60.58 L407.1605755138397,60.62 L409.1605755138397,60.81 L411.1605755138397,61.15 L413.1605755138397,61.63 L415.1605755138397,62.25 L417.1605755138397,63.01 L419.1605755138397,63.92 L421.1605755138397,64.96 L423.07057551383974,66.09 L424.77057551383973,67.19 L426.3105755138397,68.28 L427.7305755138397,69.35 L429.0605755138397,70.4 L430.3105755138397,71.46 L431.51057551383974,72.5 L432.6505755138397,73.54 L433.7405755138397,74.58 L434.8005755138397,75.62 L435.82057551383974,76.65 L436.8105755138397,77.68 L437.77057551383973,78.7 L438.71057551383973,79.73 L439.6205755138397,80.75 L440.52057551383973,81.77 L441.39057551383974,82.79 L442.25057551383975,83.81 L443.0905755138397,84.83 L443.9105755138397,85.85 L444.7205755138397,86.87 L445.52057551383973,87.88 L446.3005755138397,88.9 L447.07057551383974,89.91 L447.8405755138397,90.93 L448.5905755138397,91.94 L449.33057551383973,92.95 L450.0605755138397,93.96 L450.7805755138397,94.97 L451.50057551383975,95.99 L452.21057551383973,97 L452.9105755138397,98.01 L453.6005755138397,99.02 L454.2905755138397,100.03 L454.9705755138397,101.03 L455.64057551383974,102.04 L456.3105755138397,103.05 L456.9705755138397,104.06 L457.63057551383974,105.07 L458.2805755138397,106.07 L458.9305755138397,107.08 L459.57057551383974,108.09 L460.21057551383973,109.1 L460.8505755138397,110.1 L461.4805755138397,111.11 L462.1005755138397,112.11 L462.7305755138397,113.12 L463.3505755138397,114.13 L463.96057551383973,115.13 L464.57057551383974,116.14 L465.1805755138397,117.14 L465.7905755138397,118.15 L466.39057551383974,119.15 L467.00057551383975,120.15 L467.5905755138397,121.16 L468.19057551383975,122.16 L468.7805755138397,123.17 L469.3705755138397,124.17 L469.96057551383973,125.17 L470.5505755138397,126.18 L471.14057551383974,127.18 L471.7205755138397,128.18 L472.3005755138397,129.19 L472.88057551383974,130.19 L473.46057551383973,131.19 L474.0305755138397,132.19 L474.6105755138397,133.2 L475.1805755138397,134.2 L475.76057551383974,135.2 L476.33057551383973,136.2 L476.9005755138397,137.2 L477.46057551383973,138.21 L478.0305755138397,139.21 L478.6005755138397,140.21 L479.1705755138397,141.21 L479.7305755138397,142.21 L480.2905755138397,143.21 L480.8605755138397,144.22 L481.4205755138397,145.22 L481.9805755138397,146.22 L482.5405755138397,147.22 L483.1105755138397,148.22 L483.6705755138397,149.22 L484.2305755138397,150.22 L484.7905755138397,151.22 L485.3505755138397,152.22 L485.9105755138397,153.22 L486.4705755138397,154.22 L487.0305755138397,155.22 L487.5905755138397,156.22 L488.1505755138397,157.22 L488.71057551383973,158.22 L489.26057551383974,159.22 L489.82057551383974,160.22 L490.38057551383974,161.22 L490.95057551383974,162.22 L491.51057551383974,163.22 L492.07057551383974,164.22 L492.63057551383974,165.22 L493.19057551383975,166.22 L493.75057551383975,167.21 L494.32057551383974,168.21 L494.88057551383974,169.21 L495.45057551383974,170.21 L496.01057551383974,171.21 L496.58057551383973,172.21 L497.14057551383974,173.21 L497.71057551383973,174.2 L498.2805755138397,175.2 L498.8505755138397,176.2 L499.4205755138397,177.2 L499.9905755138397,178.2 L500.57057551383974,179.2 L501.14057551383974,180.19 L501.7205755138397,181.19 L502.2905755138397,182.19 L502.8705755138397,183.19 L503.45057551383974,184.18 L504.0305755138397,185.18 L504.6205755138397,186.18 L505.20057551383974,187.17 L505.7905755138397,188.17 L506.3705755138397,189.17 L506.96057551383973,190.17 L507.5605755138397,191.16 L508.1505755138397,192.16 L508.7405755138397,193.16 L509.3405755138397,194.15 L509.94057551383975,195.15 L510.5405755138397,196.14 L511.1505755138397,197.14 L511.75057551383975,198.14 L512.3605755138398,199.13 L512.9705755138398,200.13 L513.5905755138397,201.12 L514.2005755138397,202.12 L514.8205755138397,203.12 L515.4505755138397,204.11 L516.0705755138397,205.11 L516.7005755138397,206.1 L517.3305755138397,207.1 L517.9605755138397,208.09 L518.6005755138398,209.09 L519.2405755138398,210.08 L519.8905755138397,211.08 L520.5305755138397,212.07 L521.1805755138397,213.06 L521.8405755138397,214.06 L522.5005755138397,215.05 L523.1605755138397,216.05 L523.8305755138397,217.04 L524.5005755138397,218.03 L525.1705755138397,219.03 L525.8505755138398,220.02 L526.5305755138397,221.01 L527.2205755138398,222.01 L527.9205755138397,223 L528.6105755138398,223.99 L529.3205755138397,224.99 L530.0305755138397,225.98 L530.7405755138398,226.97 L531.4605755138397,227.96 L532.1805755138397,228.96 L532.9105755138397,229.95 L533.6505755138397,230.94 L534.3905755138397,231.93 L535.1405755138397,232.92 L535.9005755138397,233.91 L536.6605755138397,234.9 L537.4305755138397,235.89 L538.2105755138397,236.88 L538.9905755138398,237.87 L539.7805755138397,238.86 L540.5805755138397,239.85 L541.3905755138397,240.84 L542.2105755138397,241.83 L543.0405755138397,242.82 L543.8705755138398,243.81 L544.7205755138398,244.8 L545.5705755138397,245.79 L546.4305755138397,246.78 L547.3105755138397,247.76 L548.1905755138397,248.75 L549.0905755138397,249.74 L550.0005755138397,250.72 L550.9205755138397,251.71 L551.8605755138398,252.7 L552.8005755138397,253.68 L553.7605755138397,254.67 L554.7405755138398,255.65 L555.7305755138398,256.64 L556.7305755138398,257.62 L557.7605755138397,258.61 L558.7905755138397,259.59 L559.8505755138398,260.57 L560.9305755138397,261.55 L562.0205755138397,262.53 L563.1405755138397,263.52 L564.2705755138397,264.5 L565.4305755138397,265.48 L566.6205755138398,266.46 L567.8305755138397,267.43 L569.0605755138397,268.41 L570.3205755138397,269.39 L571.6205755138398,270.36 L572.9405755138397,271.34 L574.3005755138397,272.31 L575.6905755138397,273.29 L577.1305755138397,274.26 L578.6005755138398,275.23 L580.1205755138398,276.2 L581.6805755138397,277.17 L583.3005755138397,278.14 L584.9705755138398,279.1 L586.6905755138397,280.07 L588.4905755138398,281.03 L590.3505755138398,281.99 L592.2905755138397,282.95 L594.2905755138397,283.89 L596.2905755138397,284.79 L598.2905755138397,285.65 L600.2905755138397,286.47 L602.2905755138397,287.25 L604.2905755138397,287.99 L606.2905755138397,288.69 L608.2905755138397,289.36 L610.2905755138397,290 L612.2905755138397,290.6 L614.2905755138397,291.18 L616.2905755138397,291.72 L618.2905755138397,292.24 L620.2905755138397,292.72 L622.2905755138397,293.18 L624.2905755138397,293.62 L626.2905755138397,294.03 L628.2905755138397,294.42 L630.2905755138397,294.78 L632.2905755138397,295.13 L634.2905755138397,295.45 L636.2905755138397,295.76 L638.2905755138397,296.05 L640.2905755138397,296.32 L642.2905755138397,296.57 L644.2905755138397,296.81 L646.2905755138397,297.03 L648.2905755138397,297.24 " style="fill:none;stroke:#000000;stroke-width:1;" id="svg_6"/></g><path fill="#eb1a1a" fill-opacity="1" stroke="#b80404" stroke-opacity="1" stroke-width="2" stroke-dasharray="none" stroke-linejoin="round" stroke-linecap="butt" stroke-dashoffset="" fill-rule="nonzero" opacity="1" marker-start="" marker-mid="" marker-end="" d="M242.87770482393216,58.705041112999034 L527.76979408682,59.42446558083462 " id="svg_7" class=""/><path fill="#eb1a1a" fill-opacity="1" stroke="#04b804" stroke-opacity="1" stroke-width="2" stroke-dasharray="none" stroke-linejoin="round" stroke-linecap="butt" stroke-dashoffset="" fill-rule="nonzero" opacity="1" marker-start="" marker-mid="" marker-end="" d="M405.46763446314867,59.424465434237L407.6259078666554,299.7122376913191" id="svg_9" class=""/></g></svg>