<?xml version="1.0" standalone="no"?><!DOCTYPE svg PUBLIC "-//W3C//DTD SVG 1.1//EN" "http://www.w3.org/Graphics/SVG/1.1/DTD/svg11.dtd"><svg xmlns="http://www.w3.org/2000/svg" viewBox="0 0 650 400" version="1.1"><clipPath id="box"><rect x="0" y="0" width="650" height="400" style="fill:none;stroke:none;" /></clipPath><g clip-path="url(#box)"><rect x="0.00" y="0.00" width="650.00" height="400.00" style="fill:#FFFFFF;stroke:none;" /><path d="M325.00 0.00 L325.00 400.00 " style="fill:none;stroke:#000000;stroke-width:1;" /><path d="M0.00 200.00 L650.00 200.00 " style="fill:none;stroke:#000000;stroke-width:1;" /><path d="M-10.00 200.00 L-0.25 200.00 L0.75 200.00 L2.75 200.00 L4.75 200.00 L6.75 200.00 L8.75 200.00 L10.75 200.00 L12.75 200.00 L14.75 200.00 L16.75 200.00 L18.75 200.00 L20.75 200.00 L22.75 200.00 L24.75 200.00 L26.75 200.00 L28.75 200.00 L30.75 200.00 L32.75 200.00 L34.75 200.00 L36.75 200.00 L38.75 200.00 L40.75 200.00 L42.75 200.00 L44.75 200.00 L46.75 200.00 L48.75 200.00 L50.75 200.00 L52.75 200.00 L54.75 200.00 L56.75 200.00 L58.75 200.00 L60.75 200.00 L62.75 200.00 L64.75 200.00 L66.75 200.00 L68.75 200.00 L70.75 200.00 L72.75 200.00 L74.75 200.00 L76.75 200.00 L78.75 200.00 L80.75 200.00 L82.75 200.00 L84.75 200.00 L86.75 200.00 L88.75 200.00 L90.75 200.00 L92.75 200.00 L94.75 200.00 L96.75 200.00 L98.75 200.00 L100.75 200.00 L102.75 200.00 L104.75 200.00 L106.75 200.00 L108.75 200.00 L110.75 200.00 L112.75 200.00 L114.75 200.00 L116.75 200.00 L118.75 200.00 L120.75 200.00 L122.75 200.00 L124.75 200.00 L126.75 200.00 L128.75 200.00 L130.75 200.00 L132.75 200.00 L134.75 200.00 L136.75 200.00 L138.75 200.00 L140.75 200.00 L142.75 200.00 L144.75 200.00 L146.75 200.00 L148.75 200.00 L150.75 200.00 L152.75 200.00 L154.75 200.00 L156.75 200.00 L158.75 200.00 L160.75 200.00 L162.75 200.00 L164.75 200.00 L166.75 200.00 L168.75 200.00 L170.75 200.00 L172.75 200.00 L174.75 200.00 L176.75 200.00 L178.75 200.00 L180.75 200.00 L182.75 200.00 L184.75 200.00 L186.75 200.00 L188.75 200.00 L190.75 200.00 L192.75 200.00 L194.75 200.00 L196.75 200.00 L198.75 200.00 L200.75 200.00 L202.75 200.00 L204.75 200.00 L206.75 200.00 L208.75 200.00 L210.75 200.00 L212.75 200.00 L214.75 200.00 L216.75 200.00 L218.75 200.00 L220.75 200.00 L222.75 200.00 L224.75 200.00 L226.75 200.00 L228.75 200.00 L230.75 200.00 L232.75 200.00 L234.75 200.00 L236.75 200.00 L238.75 200.00 L240.75 200.00 L242.75 200.00 L244.75 200.00 L246.75 200.00 L248.75 200.00 L250.75 200.00 L252.75 200.00 L254.75 200.00 L256.75 200.00 L258.75 200.00 L260.75 200.00 L262.75 200.00 L264.75 200.00 L266.75 200.00 L268.75 200.00 L270.75 200.00 L272.75 200.00 L274.75 200.00 L276.75 200.00 L278.75 200.00 L280.75 200.00 L282.75 200.00 L284.75 200.00 L286.75 200.00 L288.75 200.00 L290.75 200.00 L292.75 200.00 L294.75 200.00 L296.75 200.00 L298.75 200.00 L300.75 200.00 L302.75 200.00 L304.75 200.00 L306.75 200.00 L308.75 200.00 L310.75 200.00 L312.75 200.00 L314.75 200.00 L316.75 200.00 L318.75 200.00 L320.75 200.00 L322.75 200.00 L324.75 200.00 L326.75 198.92 L328.61 197.78 L330.23 196.78 L331.86 195.78 L333.48 194.78 L335.11 193.78 L336.73 192.78 L338.36 191.78 L339.98 190.78 L341.61 189.78 L343.23 188.78 L344.86 187.78 L346.48 186.78 L348.11 185.78 L349.73 184.78 L351.36 183.78 L352.98 182.78 L354.61 181.78 L356.23 180.78 L357.86 179.78 L359.48 178.78 L361.11 177.78 L362.73 176.78 L364.36 175.78 L365.98 174.78 L367.61 173.78 L369.23 172.78 L370.86 171.78 L372.48 170.78 L374.11 169.78 L375.73 168.78 L377.36 167.78 L378.98 166.78 L380.61 165.78 L382.23 164.78 L383.86 163.78 L385.48 162.78 L387.11 161.78 L388.73 160.78 L390.36 159.78 L391.98 158.78 L393.61 157.78 L395.23 156.78 L396.86 155.78 L398.48 154.78 L400.11 153.78 L401.73 152.78 L403.36 151.78 L404.98 150.78 L406.61 149.78 L408.23 148.78 L409.86 147.78 L411.48 146.78 L413.11 145.78 L414.73 144.78 L416.36 143.78 L417.98 142.78 L419.61 141.78 L421.23 140.78 L422.86 139.78 L424.48 138.78 L426.11 137.78 L427.73 136.78 L429.36 135.78 L430.98 134.78 L432.61 133.78 L434.23 132.78 L435.86 131.78 L437.48 130.78 L439.11 129.78 L440.73 128.78 L442.36 127.78 L443.98 126.78 L445.61 125.78 L447.23 124.78 L448.86 123.78 L450.48 122.78 L452.11 121.78 L453.73 120.78 L455.36 119.78 L456.98 118.78 L458.61 117.78 L460.23 116.78 L461.86 115.78 L463.48 114.78 L465.11 113.78 L466.73 112.78 L468.36 111.78 L469.98 110.78 L471.61 109.78 L473.23 108.78 L474.86 107.78 L476.48 106.78 L478.11 105.78 L479.73 104.78 L481.36 103.78 L482.98 102.78 L484.61 101.78 L486.23 100.78 L487.86 99.78 L489.48 98.78 L491.11 97.78 L492.73 96.78 L494.36 95.78 L495.98 94.78 L497.61 93.78 L499.23 92.78 L500.86 91.78 L502.48 90.78 L504.11 89.78 L505.73 88.78 L507.36 87.78 L508.98 86.78 L510.61 85.78 L512.23 84.78 L513.86 83.78 L515.48 82.78 L517.11 81.78 L518.73 80.78 L520.36 79.78 L521.98 78.78 L523.61 77.78 L525.23 76.78 L526.86 75.78 L528.48 74.78 L530.11 73.78 L531.73 72.78 L533.36 71.78 L534.98 70.78 L536.61 69.78 L538.23 68.78 L539.86 67.78 L541.48 66.78 L543.11 65.78 L544.73 64.78 L546.36 63.78 L547.98 62.78 L549.61 61.78 L551.23 60.78 L552.86 59.78 L554.48 58.78 L556.11 57.78 L557.73 56.78 L559.36 55.78 L560.98 54.78 L562.61 53.78 L564.23 52.78 L565.86 51.78 L567.48 50.78 L569.11 49.78 L570.73 48.78 L572.36 47.78 L573.98 46.78 L575.61 45.78 L577.23 44.78 L578.86 43.78 L580.48 42.78 L582.11 41.78 L583.73 40.78 L585.36 39.78 L586.98 38.78 L588.61 37.78 L590.23 36.78 L591.86 35.78 L593.48 34.78 L595.11 33.78 L596.73 32.78 L598.36 31.78 L599.98 30.78 L601.61 29.78 L603.23 28.78 L604.86 27.78 L606.48 26.78 L608.11 25.78 L609.73 24.78 L611.36 23.78 L612.98 22.78 L614.61 21.78 L616.23 20.78 L617.86 19.78 L619.48 18.78 L621.11 17.78 L622.73 16.78 L624.36 15.78 L625.98 14.78 L627.61 13.78 L629.23 12.78 L630.86 11.78 L632.48 10.78 L634.11 9.78 L635.73 8.78 L637.36 7.78 L638.98 6.78 L640.61 5.78 L642.23 4.78 L643.86 3.78 L645.48 2.78 L647.11 1.78 L648.73 0.78 " style="fill:none;stroke:#000000;stroke-width:1;" /></g></svg>