<?xml version="1.0" standalone="no"?><!DOCTYPE svg PUBLIC "-//W3C//DTD SVG 1.1//EN" "http://www.w3.org/Graphics/SVG/1.1/DTD/svg11.dtd"><svg xmlns="http://www.w3.org/2000/svg" viewBox="0 0 650 400" version="1.1"><clipPath id="box"><rect x="0" y="0" width="650" height="400" style="fill:none;stroke:none;" /></clipPath><g clip-path="url(#box)"><rect x="0.00" y="0.00" width="650.00" height="400.00" style="fill:#FFFFFF;stroke:none;" /><path d="M325.00 0.00 L325.00 400.00 " style="fill:none;stroke:#000000;stroke-width:1;" /><path d="M0.00 300.00 L650.00 300.00 " style="fill:none;stroke:#000000;stroke-width:1;" /><path d="M-10.00 200.00 L-0.25 298.67 L0.75 298.65 L2.75 298.60 L4.75 298.56 L6.75 298.52 L8.75 298.47 L10.75 298.42 L12.75 298.37 L14.75 298.32 L16.75 298.27 L18.75 298.22 L20.75 298.16 L22.75 298.11 L24.75 298.05 L26.75 297.99 L28.75 297.92 L30.75 297.86 L32.75 297.79 L34.75 297.73 L36.75 297.66 L38.75 297.58 L40.75 297.51 L42.75 297.43 L44.75 297.35 L46.75 297.27 L48.75 297.19 L50.75 297.10 L52.75 297.01 L54.75 296.92 L56.75 296.82 L58.75 296.73 L60.75 296.63 L62.75 296.52 L64.75 296.42 L66.75 296.31 L68.75 296.19 L70.75 296.08 L72.75 295.96 L74.75 295.83 L76.75 295.71 L78.75 295.57 L80.75 295.44 L82.75 295.30 L84.75 295.16 L86.75 295.01 L88.75 294.86 L90.75 294.70 L92.75 294.54 L94.75 294.37 L96.75 294.20 L98.75 294.03 L100.75 293.85 L102.75 293.66 L104.75 293.47 L106.75 293.27 L108.75 293.07 L110.75 292.86 L112.75 292.64 L114.75 292.42 L116.75 292.20 L118.75 291.96 L120.75 291.72 L122.75 291.47 L124.75 291.22 L126.75 290.96 L128.75 290.69 L130.75 290.41 L132.75 290.13 L134.75 289.83 L136.75 289.53 L138.75 289.22 L140.75 288.90 L142.75 288.58 L144.75 288.24 L146.75 287.90 L148.75 287.54 L150.75 287.18 L152.75 286.80 L154.75 286.42 L156.75 286.02 L158.75 285.62 L160.75 285.20 L162.75 284.77 L164.75 284.34 L166.75 283.89 L168.75 283.42 L170.75 282.95 L172.75 282.46 L174.75 281.97 L176.75 281.45 L178.75 280.93 L180.75 280.39 L182.75 279.84 L184.75 279.28 L186.75 278.70 L188.75 278.11 L190.75 277.50 L192.75 276.88 L194.75 276.24 L196.75 275.59 L198.75 274.92 L200.75 274.24 L202.75 273.54 L204.75 272.83 L206.75 272.09 L208.75 271.35 L210.75 270.58 L212.75 269.80 L214.75 269.01 L216.75 268.19 L218.75 267.36 L220.75 266.51 L222.75 265.64 L224.75 264.76 L226.75 263.86 L228.75 262.94 L230.75 262.00 L232.75 261.04 L234.75 260.07 L236.75 259.08 L238.75 258.07 L240.73 257.05 L242.67 256.03 L244.58 255.01 L246.46 254.00 L248.31 252.98 L250.13 251.97 L251.93 250.95 L253.70 249.94 L255.44 248.93 L257.16 247.91 L258.86 246.90 L260.54 245.89 L262.19 244.88 L263.83 243.86 L265.45 242.85 L267.05 241.84 L268.63 240.83 L270.20 239.82 L271.75 238.81 L273.29 237.80 L274.82 236.79 L276.33 235.79 L277.82 234.78 L279.31 233.77 L280.78 232.76 L282.24 231.75 L283.69 230.75 L285.13 229.74 L286.56 228.73 L287.99 227.73 L289.40 226.72 L290.80 225.72 L292.20 224.71 L293.59 223.70 L294.97 222.70 L296.34 221.69 L297.71 220.69 L299.07 219.69 L300.43 218.68 L301.78 217.68 L303.12 216.67 L304.46 215.67 L305.79 214.67 L307.13 213.66 L308.45 212.66 L309.77 211.66 L311.09 210.66 L312.41 209.65 L313.72 208.65 L315.04 207.65 L316.34 206.65 L317.65 205.65 L318.96 204.65 L320.26 203.65 L321.56 202.64 L322.86 201.64 L324.16 200.64 L325.46 199.64 L326.76 198.64 L328.06 197.64 L329.36 196.64 L330.66 195.65 L331.97 194.65 L333.27 193.65 L334.57 192.65 L335.88 191.65 L337.19 190.65 L338.50 189.65 L339.81 188.66 L341.13 187.66 L342.45 186.66 L343.77 185.66 L345.09 184.67 L346.42 183.67 L347.76 182.67 L349.09 181.68 L350.44 180.68 L351.78 179.68 L353.14 178.69 L354.50 177.69 L355.86 176.70 L357.23 175.70 L358.61 174.71 L360.00 173.71 L361.39 172.72 L362.79 171.72 L364.20 170.73 L365.61 169.74 L367.04 168.74 L368.48 167.75 L369.92 166.76 L371.38 165.76 L372.85 164.77 L374.32 163.78 L375.81 162.79 L377.32 161.80 L378.83 160.81 L380.36 159.81 L381.90 158.82 L383.46 157.83 L385.04 156.84 L386.62 155.85 L388.23 154.87 L389.85 153.88 L391.50 152.89 L393.16 151.90 L394.84 150.91 L396.54 149.92 L398.26 148.94 L400.01 147.95 L401.78 146.97 L403.58 145.98 L405.40 144.99 L407.25 144.01 L409.13 143.03 L411.04 142.04 L412.98 141.06 L414.95 140.08 L416.95 139.10 L418.95 138.14 L420.95 137.20 L422.95 136.28 L424.95 135.37 L426.95 134.49 L428.95 133.62 L430.95 132.76 L432.95 131.93 L434.95 131.11 L436.95 130.31 L438.95 129.53 L440.95 128.76 L442.95 128.02 L444.95 127.28 L446.95 126.57 L448.95 125.86 L450.95 125.18 L452.95 124.51 L454.95 123.86 L456.95 123.22 L458.95 122.59 L460.95 121.98 L462.95 121.39 L464.95 120.81 L466.95 120.24 L468.95 119.69 L470.95 119.15 L472.95 118.62 L474.95 118.11 L476.95 117.61 L478.95 117.12 L480.95 116.65 L482.95 116.18 L484.95 115.73 L486.95 115.29 L488.95 114.86 L490.95 114.44 L492.95 114.04 L494.95 113.64 L496.95 113.25 L498.95 112.88 L500.95 112.51 L502.95 112.16 L504.95 111.81 L506.95 111.47 L508.95 111.14 L510.95 110.83 L512.95 110.51 L514.95 110.21 L516.95 109.92 L518.95 109.63 L520.95 109.35 L522.95 109.08 L524.95 108.82 L526.95 108.56 L528.95 108.32 L530.95 108.07 L532.95 107.84 L534.95 107.61 L536.95 107.39 L538.95 107.17 L540.95 106.96 L542.95 106.76 L544.95 106.56 L546.95 106.37 L548.95 106.18 L550.95 106.00 L552.95 105.82 L554.95 105.65 L556.95 105.48 L558.95 105.32 L560.95 105.17 L562.95 105.01 L564.95 104.87 L566.95 104.72 L568.95 104.58 L570.95 104.45 L572.95 104.31 L574.95 104.19 L576.95 104.06 L578.95 103.94 L580.95 103.82 L582.95 103.71 L584.95 103.60 L586.95 103.49 L588.95 103.39 L590.95 103.29 L592.95 103.19 L594.95 103.09 L596.95 103.00 L598.95 102.91 L600.95 102.83 L602.95 102.74 L604.95 102.66 L606.95 102.58 L608.95 102.50 L610.95 102.43 L612.95 102.35 L614.95 102.28 L616.95 102.22 L618.95 102.15 L620.95 102.08 L622.95 102.02 L624.95 101.96 L626.95 101.90 L628.95 101.85 L630.95 101.79 L632.95 101.74 L634.95 101.68 L636.95 101.63 L638.95 101.58 L640.95 101.54 L642.95 101.49 L644.95 101.45 L646.95 101.40 L648.95 101.36 " style="fill:none;stroke:#000000;stroke-width:1;" /></g></svg>