<?xml version="1.0" standalone="no"?><!DOCTYPE svg PUBLIC "-//W3C//DTD SVG 1.1//EN" "http://www.w3.org/Graphics/SVG/1.1/DTD/svg11.dtd"><svg xmlns="http://www.w3.org/2000/svg" viewBox="0 0 650 400" version="1.1"><clipPath id="box"><rect x="0" y="0" width="650" height="400" style="fill:none;stroke:none;" /></clipPath><g clip-path="url(#box)"><rect x="0.00" y="0.00" width="650.00" height="400.00" style="fill:#FFFFFF;stroke:none;" /><path d="M325.00 0.00 L325.00 400.00 " style="fill:none;stroke:#000000;stroke-width:1;" /><path d="M0.00 200.00 L650.00 200.00 " style="fill:none;stroke:#000000;stroke-width:1;" /><path d="M-10.00 200.00 L-0.25 333.24 L0.75 333.24 L2.75 333.24 L4.75 333.23 L6.75 333.23 L8.75 333.22 L10.75 333.22 L12.75 333.21 L14.75 333.20 L16.75 333.20 L18.75 333.19 L20.75 333.18 L22.75 333.18 L24.75 333.17 L26.75 333.16 L28.75 333.15 L30.75 333.14 L32.75 333.13 L34.75 333.12 L36.75 333.11 L38.75 333.10 L40.75 333.09 L42.75 333.08 L44.75 333.06 L46.75 333.05 L48.75 333.04 L50.75 333.02 L52.75 333.01 L54.75 332.99 L56.75 332.97 L58.75 332.95 L60.75 332.93 L62.75 332.91 L64.75 332.89 L66.75 332.87 L68.75 332.85 L70.75 332.82 L72.75 332.80 L74.75 332.77 L76.75 332.74 L78.75 332.71 L80.75 332.68 L82.75 332.65 L84.75 332.61 L86.75 332.58 L88.75 332.54 L90.75 332.50 L92.75 332.46 L94.75 332.41 L96.75 332.37 L98.75 332.32 L100.75 332.27 L102.75 332.22 L104.75 332.16 L106.75 332.10 L108.75 332.04 L110.75 331.97 L112.75 331.91 L114.75 331.83 L116.75 331.76 L118.75 331.68 L120.75 331.60 L122.75 331.51 L124.75 331.42 L126.75 331.32 L128.75 331.22 L130.75 331.12 L132.75 331.01 L134.75 330.89 L136.75 330.77 L138.75 330.64 L140.75 330.50 L142.75 330.36 L144.75 330.21 L146.75 330.06 L148.75 329.90 L150.75 329.73 L152.75 329.55 L154.75 329.36 L156.75 329.16 L158.75 328.95 L160.75 328.74 L162.75 328.51 L164.75 328.27 L166.75 328.02 L168.75 327.76 L170.75 327.48 L172.75 327.19 L174.75 326.89 L176.75 326.57 L178.75 326.24 L180.75 325.89 L182.75 325.53 L184.75 325.15 L186.75 324.75 L188.75 324.33 L190.75 323.89 L192.75 323.43 L194.75 322.95 L196.75 322.45 L198.75 321.92 L200.75 321.37 L202.75 320.80 L204.75 320.20 L206.75 319.57 L208.75 318.91 L210.75 318.22 L212.75 317.51 L214.75 316.76 L216.75 315.97 L218.75 315.16 L220.75 314.31 L222.75 313.42 L224.75 312.49 L226.75 311.53 L228.75 310.52 L230.74 309.48 L232.65 308.44 L234.48 307.40 L236.25 306.36 L237.95 305.33 L239.60 304.30 L241.20 303.26 L242.74 302.23 L244.24 301.20 L245.70 300.18 L247.12 299.15 L248.50 298.12 L249.85 297.10 L251.16 296.07 L252.44 295.05 L253.69 294.03 L254.92 293.01 L256.12 291.99 L257.29 290.97 L258.45 289.95 L259.57 288.93 L260.68 287.91 L261.77 286.89 L262.84 285.87 L263.89 284.86 L264.92 283.84 L265.94 282.82 L266.94 281.81 L267.92 280.79 L268.89 279.78 L269.85 278.76 L270.79 277.75 L271.72 276.74 L272.64 275.72 L273.54 274.71 L274.44 273.70 L275.32 272.69 L276.19 271.67 L277.05 270.66 L277.91 269.65 L278.75 268.64 L279.58 267.63 L280.41 266.62 L281.22 265.61 L282.03 264.60 L282.83 263.59 L283.62 262.58 L284.41 261.57 L285.19 260.56 L285.96 259.55 L286.72 258.54 L287.48 257.54 L288.23 256.53 L288.98 255.52 L289.72 254.51 L290.45 253.51 L291.18 252.50 L291.91 251.49 L292.62 250.48 L293.34 249.48 L294.05 248.47 L294.75 247.46 L295.45 246.46 L296.15 245.45 L296.84 244.45 L297.53 243.44 L298.21 242.44 L298.89 241.43 L299.57 240.43 L300.24 239.42 L300.91 238.42 L301.57 237.41 L302.24 236.41 L302.90 235.40 L303.55 234.40 L304.21 233.39 L304.86 232.39 L305.51 231.39 L306.16 230.38 L306.80 229.38 L307.44 228.37 L308.08 227.37 L308.72 226.37 L309.35 225.36 L309.99 224.36 L310.62 223.36 L311.25 222.36 L311.87 221.35 L312.50 220.35 L313.13 219.35 L313.75 218.35 L314.37 217.34 L314.99 216.34 L315.61 215.34 L316.23 214.34 L316.85 213.34 L317.46 212.34 L318.08 211.33 L318.69 210.33 L319.30 209.33 L319.92 208.33 L320.53 207.33 L321.14 206.33 L321.75 205.33 L322.36 204.33 L322.97 203.33 L323.58 202.33 L324.19 201.33 L324.80 200.33 L325.41 199.33 L326.02 198.33 L326.63 197.33 L327.24 196.33 L327.85 195.33 L328.46 194.33 L329.07 193.33 L329.68 192.33 L330.29 191.33 L330.90 190.33 L331.51 189.33 L332.13 188.33 L332.74 187.33 L333.36 186.34 L333.97 185.34 L334.59 184.34 L335.20 183.34 L335.82 182.34 L336.44 181.34 L337.06 180.35 L337.69 179.35 L338.31 178.35 L338.93 177.35 L339.56 176.36 L340.19 175.36 L340.82 174.36 L341.45 173.37 L342.09 172.37 L342.72 171.37 L343.36 170.37 L344.00 169.38 L344.64 168.38 L345.29 167.39 L345.93 166.39 L346.58 165.39 L347.23 164.40 L347.89 163.40 L348.55 162.41 L349.21 161.41 L349.87 160.42 L350.54 159.42 L351.21 158.43 L351.88 157.43 L352.56 156.44 L353.24 155.44 L353.92 154.45 L354.61 153.45 L355.30 152.46 L356.00 151.46 L356.70 150.47 L357.40 149.48 L358.11 148.48 L358.83 147.49 L359.54 146.50 L360.27 145.50 L361.00 144.51 L361.73 143.52 L362.47 142.53 L363.22 141.54 L363.97 140.54 L364.73 139.55 L365.49 138.56 L366.26 137.57 L367.04 136.58 L367.82 135.59 L368.61 134.60 L369.41 133.61 L370.22 132.62 L371.03 131.63 L371.85 130.64 L372.68 129.65 L373.52 128.66 L374.37 127.67 L375.23 126.68 L376.10 125.69 L376.98 124.70 L377.87 123.71 L378.77 122.73 L379.68 121.74 L380.60 120.75 L381.54 119.77 L382.49 118.78 L383.45 117.80 L384.43 116.81 L385.42 115.82 L386.42 114.84 L387.44 113.86 L388.48 112.87 L389.54 111.89 L390.61 110.91 L391.70 109.92 L392.81 108.94 L393.94 107.96 L395.10 106.98 L396.27 106.00 L397.47 105.02 L398.69 104.04 L399.95 103.06 L401.22 102.08 L402.53 101.11 L403.87 100.13 L405.24 99.16 L406.65 98.18 L408.09 97.21 L409.57 96.24 L411.09 95.26 L412.66 94.29 L414.28 93.32 L415.94 92.36 L417.67 91.39 L419.45 90.42 L421.29 89.46 L423.20 88.50 L425.19 87.54 L427.19 86.61 L429.19 85.72 L431.19 84.87 L433.19 84.05 L435.19 83.27 L437.19 82.52 L439.19 81.80 L441.19 81.11 L443.19 80.45 L445.19 79.82 L447.19 79.22 L449.19 78.64 L451.19 78.09 L453.19 77.57 L455.19 77.06 L457.19 76.58 L459.19 76.12 L461.19 75.68 L463.19 75.27 L465.19 74.87 L467.19 74.48 L469.19 74.12 L471.19 73.77 L473.19 73.44 L475.19 73.12 L477.19 72.82 L479.19 72.53 L481.19 72.25 L483.19 71.99 L485.19 71.74 L487.19 71.50 L489.19 71.27 L491.19 71.05 L493.19 70.85 L495.19 70.65 L497.19 70.46 L499.19 70.28 L501.19 70.11 L503.19 69.95 L505.19 69.79 L507.19 69.64 L509.19 69.50 L511.19 69.37 L513.19 69.24 L515.19 69.11 L517.19 69.00 L519.19 68.89 L521.19 68.78 L523.19 68.68 L525.19 68.58 L527.19 68.49 L529.19 68.41 L531.19 68.32 L533.19 68.24 L535.19 68.17 L537.19 68.10 L539.19 68.03 L541.19 67.96 L543.19 67.90 L545.19 67.84 L547.19 67.79 L549.19 67.73 L551.19 67.68 L553.19 67.63 L555.19 67.59 L557.19 67.54 L559.19 67.50 L561.19 67.46 L563.19 67.42 L565.19 67.39 L567.19 67.35 L569.19 67.32 L571.19 67.29 L573.19 67.26 L575.19 67.23 L577.19 67.20 L579.19 67.18 L581.19 67.15 L583.19 67.13 L585.19 67.11 L587.19 67.09 L589.19 67.07 L591.19 67.05 L593.19 67.03 L595.19 67.01 L597.19 66.99 L599.19 66.98 L601.19 66.96 L603.19 66.95 L605.19 66.94 L607.19 66.92 L609.19 66.91 L611.19 66.90 L613.19 66.89 L615.19 66.88 L617.19 66.87 L619.19 66.86 L621.19 66.85 L623.19 66.84 L625.19 66.83 L627.19 66.82 L629.19 66.82 L631.19 66.81 L633.19 66.80 L635.19 66.80 L637.19 66.79 L639.19 66.78 L641.19 66.78 L643.19 66.77 L645.19 66.77 L647.19 66.76 L649.19 66.76 " style="fill:none;stroke:#000000;stroke-width:1;" /></g></svg>