<?xml version="1.0" standalone="no"?><!DOCTYPE svg PUBLIC "-//W3C//DTD SVG 1.1//EN" "http://www.w3.org/Graphics/SVG/1.1/DTD/svg11.dtd"><svg xmlns="http://www.w3.org/2000/svg" viewBox="0 0 650 400" version="1.1"><clipPath id="box"><rect x="0" y="0" width="650" height="400" style="fill:none;stroke:none;" /></clipPath><g clip-path="url(#box)"><rect x="0.00" y="0.00" width="650.00" height="400.00" style="fill:#FFFFFF;stroke:none;" /><path d="M325.00 0.00 L325.00 400.00 " style="fill:none;stroke:#000000;stroke-width:1;" /><path d="M0.00 200.00 L650.00 200.00 " style="fill:none;stroke:#000000;stroke-width:1;" /><path d="M-10.00 200.00 L-0.25 220.02 L0.75 219.95 L2.75 219.83 L4.75 219.71 L6.75 219.58 L8.75 219.46 L10.75 219.34 L12.75 219.22 L14.75 219.09 L16.75 218.97 L18.75 218.85 L20.75 218.72 L22.75 218.60 L24.75 218.48 L26.75 218.35 L28.75 218.23 L30.75 218.11 L32.75 217.98 L34.75 217.86 L36.75 217.74 L38.75 217.62 L40.75 217.49 L42.75 217.37 L44.75 217.25 L46.75 217.12 L48.75 217.00 L50.75 216.88 L52.75 216.75 L54.75 216.63 L56.75 216.51 L58.75 216.38 L60.75 216.26 L62.75 216.14 L64.75 216.02 L66.75 215.89 L68.75 215.77 L70.75 215.65 L72.75 215.52 L74.75 215.40 L76.75 215.28 L78.75 215.15 L80.75 215.03 L82.75 214.91 L84.75 214.78 L86.75 214.66 L88.75 214.54 L90.75 214.42 L92.75 214.29 L94.75 214.17 L96.75 214.05 L98.75 213.92 L100.75 213.80 L102.75 213.68 L104.75 213.55 L106.75 213.43 L108.75 213.31 L110.75 213.18 L112.75 213.06 L114.75 212.94 L116.75 212.82 L118.75 212.69 L120.75 212.57 L122.75 212.45 L124.75 212.32 L126.75 212.20 L128.75 212.08 L130.75 211.95 L132.75 211.83 L134.75 211.71 L136.75 211.58 L138.75 211.46 L140.75 211.34 L142.75 211.22 L144.75 211.09 L146.75 210.97 L148.75 210.85 L150.75 210.72 L152.75 210.60 L154.75 210.48 L156.75 210.35 L158.75 210.23 L160.75 210.11 L162.75 209.98 L164.75 209.86 L166.75 209.74 L168.75 209.62 L170.75 209.49 L172.75 209.37 L174.75 209.25 L176.75 209.12 L178.75 209.00 L180.75 208.88 L182.75 208.75 L184.75 208.63 L186.75 208.51 L188.75 208.38 L190.75 208.26 L192.75 208.14 L194.75 208.02 L196.75 207.89 L198.75 207.77 L200.75 207.65 L202.75 207.52 L204.75 207.40 L206.75 207.28 L208.75 207.15 L210.75 207.03 L212.75 206.91 L214.75 206.78 L216.75 206.66 L218.75 206.54 L220.75 206.42 L222.75 206.29 L224.75 206.17 L226.75 206.05 L228.75 205.92 L230.75 205.80 L232.75 205.68 L234.75 205.55 L236.75 205.43 L238.75 205.31 L240.75 205.18 L242.75 205.06 L244.75 204.94 L246.75 204.82 L248.75 204.69 L250.75 204.57 L252.75 204.45 L254.75 204.32 L256.75 204.20 L258.75 204.08 L260.75 203.95 L262.75 203.83 L264.75 203.71 L266.75 203.58 L268.75 203.46 L270.75 203.34 L272.75 203.22 L274.75 203.09 L276.75 202.97 L278.75 202.85 L280.75 202.72 L282.75 202.60 L284.75 202.48 L286.75 202.35 L288.75 202.23 L290.75 202.11 L292.75 201.98 L294.75 201.86 L296.75 201.74 L298.75 201.62 L300.75 201.49 L302.75 201.37 L304.75 201.25 L306.75 201.12 L308.75 201.00 L310.75 200.88 L312.75 200.75 L314.75 200.63 L316.75 200.51 L318.75 200.38 L320.75 200.26 L322.75 200.14 L324.75 200.02 L326.75 198.92 L328.58 197.80 L330.21 196.80 L331.83 195.80 L333.46 194.80 L335.08 193.80 L336.71 192.80 L338.33 191.80 L339.96 190.80 L341.58 189.80 L343.21 188.80 L344.83 187.80 L346.46 186.80 L348.08 185.80 L349.71 184.80 L351.33 183.80 L352.96 182.80 L354.58 181.80 L356.21 180.80 L357.83 179.80 L359.46 178.80 L361.08 177.80 L362.71 176.80 L364.33 175.80 L365.96 174.80 L367.58 173.80 L369.21 172.80 L370.83 171.80 L372.46 170.80 L374.08 169.80 L375.71 168.80 L377.33 167.80 L378.96 166.80 L380.58 165.80 L382.21 164.80 L383.83 163.80 L385.46 162.80 L387.08 161.80 L388.71 160.80 L390.33 159.80 L391.96 158.80 L393.58 157.80 L395.21 156.80 L396.83 155.80 L398.46 154.80 L400.08 153.80 L401.71 152.80 L403.33 151.80 L404.96 150.80 L406.58 149.80 L408.21 148.80 L409.83 147.80 L411.46 146.80 L413.08 145.80 L414.71 144.80 L416.33 143.80 L417.96 142.80 L419.58 141.80 L421.21 140.80 L422.83 139.80 L424.46 138.80 L426.08 137.80 L427.71 136.80 L429.33 135.80 L430.96 134.80 L432.58 133.80 L434.21 132.80 L435.83 131.80 L437.46 130.80 L439.08 129.80 L440.71 128.80 L442.33 127.80 L443.96 126.80 L445.58 125.80 L447.21 124.80 L448.83 123.80 L450.46 122.80 L452.08 121.80 L453.71 120.80 L455.33 119.80 L456.96 118.80 L458.58 117.80 L460.21 116.80 L461.83 115.80 L463.46 114.80 L465.08 113.80 L466.71 112.80 L468.33 111.80 L469.96 110.80 L471.58 109.80 L473.21 108.80 L474.83 107.80 L476.46 106.80 L478.08 105.80 L479.71 104.80 L481.33 103.80 L482.96 102.80 L484.58 101.80 L486.21 100.80 L487.83 99.80 L489.46 98.80 L491.08 97.80 L492.71 96.80 L494.33 95.80 L495.96 94.80 L497.58 93.80 L499.21 92.80 L500.83 91.80 L502.46 90.80 L504.08 89.80 L505.71 88.80 L507.33 87.80 L508.96 86.80 L510.58 85.80 L512.21 84.80 L513.83 83.80 L515.46 82.80 L517.08 81.80 L518.71 80.80 L520.33 79.80 L521.96 78.80 L523.58 77.80 L525.21 76.80 L526.83 75.80 L528.46 74.80 L530.08 73.80 L531.71 72.80 L533.33 71.80 L534.96 70.80 L536.58 69.80 L538.21 68.80 L539.83 67.80 L541.46 66.80 L543.08 65.80 L544.71 64.80 L546.33 63.80 L547.96 62.80 L549.58 61.80 L551.21 60.80 L552.83 59.80 L554.46 58.80 L556.08 57.80 L557.71 56.80 L559.33 55.80 L560.96 54.80 L562.58 53.80 L564.21 52.80 L565.83 51.80 L567.46 50.80 L569.08 49.80 L570.71 48.80 L572.33 47.80 L573.96 46.80 L575.58 45.80 L577.21 44.80 L578.83 43.80 L580.46 42.80 L582.08 41.80 L583.71 40.80 L585.33 39.80 L586.96 38.80 L588.58 37.80 L590.21 36.80 L591.83 35.80 L593.46 34.80 L595.08 33.80 L596.71 32.80 L598.33 31.80 L599.96 30.80 L601.58 29.80 L603.21 28.80 L604.83 27.80 L606.46 26.80 L608.08 25.80 L609.71 24.80 L611.33 23.80 L612.96 22.80 L614.58 21.80 L616.21 20.80 L617.83 19.80 L619.46 18.80 L621.08 17.80 L622.71 16.80 L624.33 15.80 L625.96 14.80 L627.58 13.80 L629.21 12.80 L630.83 11.80 L632.46 10.80 L634.08 9.80 L635.71 8.80 L637.33 7.80 L638.96 6.80 L640.58 5.80 L642.21 4.80 L643.83 3.80 L645.46 2.80 L647.08 1.80 L648.71 0.80 " style="fill:none;stroke:#000000;stroke-width:1;" /></g></svg>